<?xml version="1.0" encoding="utf-8"?>
<!-- Generator: Adobe Illustrator 25.3.1, SVG Export Plug-In . SVG Version: 6.00 Build 0)  -->
<svg version="1.1" id="Capa_1" xmlns="http://www.w3.org/2000/svg" xmlns:xlink="http://www.w3.org/1999/xlink" x="0px" y="0px"
	 viewBox="0 0 500 130" style="enable-background:new 0 0 500 130;" xml:space="preserve">
<style type="text/css">
	.st0{fill:#EAC926;}
	.st1{fill:#F9F9F9;}
	.st2{fill:#FFFFFF;}
	.st3{fill:#03264C;}
	.st4{display:none;}
	.st5{display:inline;fill:#FFFFFF;}
	.st6{display:inline;fill:#03264C;}
</style>
<g id="g14">
	<g id="g24_1_" transform="translate(325.6143,316.9531)">
		<path id="path26_1_" class="st0" d="M-153.5-254.1c0,29.1-36.9,52.8-82.5,52.8s-82.5-23.6-82.5-52.8s36.9-52.8,82.5-52.8
			C-190.4-306.9-153.5-283.2-153.5-254.1"/>
	</g>
	<g>
		<path class="st1" d="M121.6,114.9c0,0,4-29.2,2.8-34.8c-1.2-5.6-1.9-12.3-6.6-12.4s-15.9,10.5-17,13.4
			c-1.1,2.9-10.3,22.4-9.8,24.9c0.5,2.4,10.4,1,13.5-2.7c3.2-3.8,6.1-3.7,6.1-3.7s4.3,15.5,5.4,16.7"/>
		<path class="st2" d="M147,33.7c0,0,6.7,18.2,2.3,41.9c-4.4,23.7-11,32-12.5,34.8c-0.8,1.4-9.6,0.8-9.5-0.5
			c0.1-1.3,1.1-32.3,2-38.6C130.4,65,136.3,34.3,147,33.7z"/>
		<path class="st3" d="M135.4,45.1c5.3-11.1,11-13.4,11.3-13.5l1-0.4l0.4,1.1c3.5,9.8,5,20.3,4.4,31.1c-0.5,8.6-2.3,17.5-5.3,26.4
			c-5.2,15.1-11.7,22.6-12,23.1c-0.2,0.3-0.6,0.5-0.9,0.5c-0.2,0-0.5-0.1-0.7-0.3c-0.5-0.5-0.5-1.3-0.1-1.9
			c0.1-0.1,6.6-7.7,11.7-22.4c4.5-13.3,8.3-33.3,1.3-54.2c-0.6,0.4-1.3,0.9-2.2,1.8c-1.7,1.7-4.4,4.8-6.9,10.2
			c-4.5,9.7-9.7,28.7-8.4,64.1c0,0.7-0.5,1.4-1.1,1.4c-0.6,0-1.2-0.5-1.2-1.3c-0.6-16,0.1-30.1,2-41.9
			C130,59.6,132.3,51.5,135.4,45.1z M133.9,74.7c-4.7,19.4-2.5,26.8,0.2,27.5c2.8,0.6,7.2-10.9,9.8-25.1c2.6-14.3,3.4-28,0.6-28.6
			C141.7,47.8,137.3,60.7,133.9,74.7z M89.4,108.1l1.1,0.4c0.2,0.1,4.1,1.3,9.7-1.2c3.1-1.4,6.1-3.8,9-7.1c0.9,5.8,4.9,13.7,5,14.1
			c0.2,0.4,0.6,0.7,1,0.7c0.2,0,0.4-0.1,0.6-0.2c0.5-0.4,0.7-1.2,0.4-1.8c-1.4-2.8-5-10.9-4.9-15c0-0.1,0-0.2,0-0.3
			c0.4-0.6,0.8-1.2,1.3-1.8c0,0.4,0.1,0.9,0.1,1.4c0.6,6.5,2.9,12.6,5.1,12.3c2.2-0.3,3.5-6.9,3-13.3c-0.4-4.1-0.7-9.5-1.7-12.2
			c0.1-0.3,0.2-0.5,0.3-0.8c0.3-0.7,0.1-1.5-0.5-1.8c-0.6-0.3-1.2-0.1-1.5,0.6c-6.4,14.8-13.1,20.5-17.7,22.7
			c-3.2,1.5-5.9,1.6-7.3,1.4c0.7-2.6,2.3-8.5,5.1-14.9c3.4-7.7,9.1-17.8,17.5-21.6c2.3-1,4.1-0.9,5.4,0.4c1.5,1.5,2.5,4.5,3,9
			c0.4,3.8,0.5,8.5,0.2,14c-0.6,9.5-2.1,18.3-2.1,18.4c-0.1,0.7,0.3,1.4,0.9,1.6c0.1,0,0.2,0,0.2,0c0.5,0,1-0.4,1.1-1.1
			c0-0.1,1.5-9,2.1-18.7c0.3-5.7,0.3-10.7-0.2-14.6c-0.6-5.2-1.9-8.8-3.8-10.7c-2-2-4.6-2.3-7.7-0.9c-4,1.8-7.8,5.1-11.2,9.6
			c-2.7,3.6-5.2,8.1-7.5,13.3c-3.8,8.8-5.5,16.5-5.6,16.8L89.4,108.1z"/>
	</g>
	<g>
		<path class="st1" d="M64.3,115c0,0-4.2-30.6-2.9-36.4c1.3-5.9,2-12.9,6.9-13c4.9-0.1,16.6,11,17.7,14c1.1,3.1,10.8,23.5,10.2,26
			c-0.5,2.5-10.9,1.1-14.2-2.9c-3.3-3.9-6.4-3.9-6.4-3.9s-4.5,16.2-5.6,17.5"/>
		<path class="st2" d="M32.3,34.5c0,0-5.5,19.5,1,43.9s14.3,34.4,15.9,35.3c1.5,0.8,10,0.1,9.9-1.3s-3.8-33.6-5.3-40.1
			C52.2,65.7,43.5,34.2,32.3,34.5z"/>
		<path class="st3" d="M54.4,69.7c2.9,12.2,4.8,26.8,5.5,43.6c0,0.8-0.5,1.4-1.1,1.4c-0.7,0-1.2-0.6-1.3-1.4
			c-1.6-37-8.5-56.4-14.1-66.2c-3.1-5.5-6.1-8.5-8.1-10.1c-1-0.8-1.9-1.4-2.5-1.7c-5.6,22.3,0.1,42.9,5.9,56.4
			c6.4,15,14.5,24.6,14.6,24.7c0.5,0.6,0.5,1.5,0,2c-0.2,0.2-0.4,0.3-0.7,0.4c-0.4,0-0.7-0.1-1-0.4c-0.3-0.4-8.4-10-15-25.4
			c-3.9-9-6.5-18.2-7.7-27.1c-1.5-11.3-0.8-22.3,2-32.8l0.3-1.2l1.1,0.3c0.3,0.1,6.4,2,12.9,13.1C48.9,51.7,52,59.9,54.4,69.7z
			 M36,49.4c-2.8,0.9-0.9,15.1,3,29.8c3.9,14.7,9.4,26.3,12.3,25.4c2.8-0.9,4.5-8.8-2-28.7C44.5,61.6,38.8,48.5,36,49.4z
			 M97.7,106.6c-0.1-0.3-1.8-8.4-5.8-17.6c-2.3-5.4-5-10.1-7.8-13.9c-3.6-4.8-7.6-8.2-11.8-10.1c-3.2-1.5-5.9-1.2-8,0.9
			c-2,2-3.4,5.8-4,11.2c-0.5,4.1-0.5,9.3-0.2,15.3c0.6,10.2,2.2,19.5,2.2,19.6c0.1,0.7,0.6,1.1,1.2,1.1c0.1,0,0.2,0,0.2,0
			c0.6-0.2,1.1-0.9,0.9-1.7c0-0.1-1.6-9.2-2.2-19.2c-0.3-5.8-0.3-10.8,0.2-14.7c0.5-4.7,1.6-7.9,3.2-9.4c1.4-1.4,3.2-1.5,5.6-0.4
			c8.7,4,14.8,14.5,18.3,22.6c2.9,6.6,4.6,12.8,5.3,15.6c-1.5,0.2-4.2,0.1-7.6-1.5C82.7,102,75.6,96,68.9,80.5c-0.3-0.7-1-1-1.6-0.6
			c-0.6,0.4-0.8,1.2-0.5,1.9c0.1,0.3,0.2,0.5,0.4,0.8c-1,2.8-1.4,8.5-1.8,12.7c-0.6,6.8,0.8,13.6,3.1,13.9c2.3,0.3,4.7-6.1,5.3-12.9
			c0-0.5,0.1-0.9,0.1-1.4c0.4,0.6,0.9,1.3,1.3,1.8c0,0.1,0,0.2,0,0.3c0.1,4.3-3.7,12.8-5.1,15.7c-0.3,0.7-0.2,1.5,0.4,1.9
			c0.2,0.1,0.4,0.2,0.6,0.2c0.4,0,0.8-0.2,1-0.7c0.2-0.4,4.3-8.7,5.3-14.8c3,3.4,6.1,5.9,9.4,7.4c5.8,2.7,10,1.4,10.1,1.3l1.1-0.4
			L97.7,106.6z"/>
	</g>
	<path class="st3" d="M89.6,6.8C42.3,6.8,3.9,32,3.9,62.9c0,0.8,0,3,0,3.3c0,32.8,33.6,59.3,85.8,59.3c52.5,0,85.8-26.5,85.8-59.3
		v-3.3C175.4,32,137,6.8,89.6,6.8z M89.7,115.6C44.1,115.6,7.2,92,7.2,62.9s36.9-52.8,82.5-52.8s82.5,23.6,82.5,52.8
		S135.2,115.6,89.7,115.6z"/>
	<g id="g28" transform="translate(189.7051,337.5469)" class="st4">
		<path id="path30" class="st5" d="M-127.4-291.3c0,0.1-0.9,0.9-0.3,1.6c1.3,1.7,5.3,2.6,9.4,1.7c2.4-0.5,5.5-3,8.5-5.4
			c3.3-2.6,6.5-5.2,9.7-6.2c3.4-1.1,5.6-0.6,7.1-0.2c1.6,0.5,3.5,1.5,6.5,3.8c5.6,4.2,28.3,24,32.2,27.5c3.2-1.4,17.2-7.5,36.3-11.7
			c-1.7-10.2-7.8-19.5-17.2-27.1c-13.1,5.5-29,8.4-44.7,0.7c-0.1,0-8.5-4-16.9-3.8c-12.4,0.3-17.8,5.6-23.4,11.3L-127.4-291.3z"/>
	</g>
	<g id="g32" transform="translate(279.0542,306.6982)" class="st4">
		<path id="path34" class="st5" d="M-144.6-235.6c-0.3-0.2-26.7-23.4-32.7-27.9c-3.5-2.6-5.4-3.3-7.4-3.5c-1.1-0.1-2.5,0.1-3.5,0.3
			c-2.8,0.8-6.4,3.2-9.6,5.8c-3.4,2.7-6.5,5.2-9.4,5.8c-3.7,0.8-8.3-0.1-10.4-1.6c-0.9-0.6-1.4-1.2-1.7-1.9
			c-0.8-1.8,0.6-3.2,0.9-3.5l7.3-7.9c0.9-0.9,1.7-1.7,2.6-2.5c-2.4,0.3-4.5,0.9-6.6,1.5c-2.6,0.7-5.2,1.5-7.8,1.5
			c-1.1,0-6.8-0.9-7.9-1.2c-6.6-1.8-12.4-3.6-21-7.6c-10.4,7.7-17.3,17.4-19.3,28c1.5,0.4,3.9,1.1,4.9,1.3
			c23.4,5.2,30.8,10.6,32.1,11.7c1.4-1.6,3.5-2.6,5.8-2.6c2.6,0,4.9,1.3,6.4,3.3c1.3-1.1,3.2-2,5.6-2c1.1,0,2.2,0.2,3.4,0.6
			c2.6,0.9,4,2.7,4.7,4.3c0.9-0.4,2-0.7,3.3-0.7c1.3,0,2.6,0.3,3.9,0.9c4.3,1.9,5,6.1,4.6,9.3c0.3,0,0.6-0.1,0.9-0.1
			c5.1,0,9.3,4.2,9.3,9.3c0,1.6-0.4,3.1-1.1,4.4c1.4,0.8,4.9,2.6,8.1,2.2c2.5-0.3,3.4-1.2,3.8-1.6c0.2-0.3,0.5-0.7,0.2-1l-6.6-7.4
			c0,0-1.1-1-0.7-1.4c0.4-0.4,1,0.2,1.5,0.6c3.4,2.8,7.5,7.1,7.5,7.1c0.1,0,0.3,0.6,1.9,0.9c1.3,0.2,3.6,0.1,5.2-1.2
			c0.4-0.3,0.8-0.8,1.1-1.2c0,0-0.1,0.1-0.1,0.1c1.7-2.2-0.2-4.4-0.2-4.4l-7.7-8.7c0,0-1.1-1-0.7-1.4c0.3-0.4,1.1,0.2,1.5,0.6
			c2.4,2.1,5.9,5.5,9.2,8.8c0.6,0.5,3.6,2.3,7.4-0.3c2.3-1.5,2.8-3.4,2.7-4.8c-0.2-1.9-1.6-3.2-1.6-3.2l-10.6-10.6
			c0,0-1.1-0.9-0.7-1.4c0.3-0.4,1.1,0.2,1.5,0.6c3.4,2.8,12.5,11.1,12.5,11.1c0.1,0.1,3.3,2.3,7.2-0.1c1.4-0.9,2.3-2.2,2.4-3.8
			C-142.7-233.9-144.6-235.6-144.6-235.6"/>
	</g>
	<g id="g36" transform="translate(215.7334,290.0596)" class="st4">
		<path id="path38" class="st5" d="M-132.4-205.5c-1.6,0-3.4,0.9-3.7,0.8c-0.1-0.1,0.1-0.7,0.2-1.1c0.2-0.4,2.3-6.9-2.9-9.1
			c-4-1.7-6.5,0.2-7.3,1.1c-0.2,0.2-0.3,0.2-0.4-0.1c-0.1-1.2-0.6-4.3-4.1-5.4c-5-1.5-8.1,1.9-8.9,3.2c-0.4-2.8-2.8-5-5.7-5
			c-3.2,0-5.8,2.6-5.8,5.8s2.6,5.8,5.8,5.8c1.5,0,2.9-0.6,4-1.6c0,0,0.1,0.1,0,0.2c-0.2,1.4-0.7,6.6,4.7,8.7c2.2,0.8,4,0.2,5.6-0.9
			c0.5-0.3,0.5-0.2,0.5,0.2c-0.2,1.3,0.1,4.2,4,5.8c3,1.2,4.8,0,6-1.1c0.5-0.5,0.6-0.4,0.7,0.3c0.1,3.9,3.3,6.9,7.2,6.9
			c4,0,7.2-3.2,7.2-7.2C-125.2-202.2-128.4-205.4-132.4-205.5"/>
	</g>
	<g id="g40" transform="translate(215.7334,272.79)" class="st4">
		<path id="path42" class="st6" d="M-132.4-174.2c-3.6,0-6.6-2.8-6.7-6.4c0-0.3,0-1.1-0.7-1.1c-0.3,0-0.5,0.2-0.8,0.4
			c-0.8,0.7-1.8,1.5-3.3,1.5c-0.7,0-1.4-0.2-2.2-0.5c-3.8-1.6-3.9-4.2-3.7-5.2c0-0.3,0.1-0.6-0.1-0.8l-0.2-0.2h-0.2
			c-0.2,0-0.4,0.1-0.7,0.3c-1.1,0.8-2.2,1.1-3.2,1.1c-0.6,0-1.2-0.1-1.8-0.4c-5-2-4.6-6.7-4.4-8.1c0-0.3,0-0.5-0.2-0.7l-0.4-0.3
			l-0.3,0.3c-1,0.9-2.3,1.5-3.6,1.5c-2.9,0-5.2-2.4-5.2-5.2c0-2.9,2.4-5.2,5.2-5.2c2.6,0,4.8,2,5.2,4.6l0.2,1.4l0.8-1.2
			c0.1-0.1,2.2-3.3,6.1-3.3c0.7,0,1.5,0.1,2.3,0.4c3.1,0.9,3.6,3.8,3.7,4.9c0.1,0.7,0.5,0.7,0.6,0.7c0.3,0,0.5-0.2,0.6-0.3
			c0.6-0.6,1.9-1.6,3.9-1.6c0.9,0,1.9,0.2,2.9,0.6c4.9,2.1,2.7,8.4,2.7,8.4c-0.4,1-0.4,1.5,0,1.8l0.2,0.1h0.1c0.2,0,0.5-0.1,1-0.2
			c0.7-0.2,1.7-0.6,2.6-0.6l0,0c3.7,0,6.7,3.1,6.7,6.7C-125.7-177.2-128.7-174.2-132.4-174.2 M-80.2-204.4
			c-8.1-7.1-26.9-23.4-32-27.3c-2.9-2.2-4.9-3.3-6.6-3.9c-0.8-0.2-1.9-0.5-3.3-0.5c-1.3,0-2.7,0.2-4.1,0.7c-3.3,1-6.6,3.6-9.7,6.2
			l-0.2,0.1c-3,2.4-6,4.8-8.3,5.3c-1,0.2-2,0.4-3.1,0.4c-2.6,0-4.9-0.8-5.8-1.9c-0.1-0.2-0.1-0.5,0.3-0.9l0-0.1l7.2-7.7
			c5.6-5.6,10.9-10.9,23.1-11.2c0.2,0,0.4,0,0.6,0c7.6,0,15.2,3.4,16,3.8c7.1,3.5,14.5,5.2,21.8,5.2c7.7,0,15.6-1.9,24-5.8
			c-0.9-0.8-1.9-1.6-2.9-2.3c-7.3,3.2-14.3,4.8-21,4.8c-6.9,0-13.8-1.7-20.4-4.9c-0.3-0.2-8.7-4.1-17.4-4.1c-0.2,0-0.5,0-0.7,0
			c-10.2,0.2-16,3.9-19.9,7.1c-3.8,0.1-7,1-9.9,1.8c-2.6,0.7-4.8,1.3-7,1.3c-0.9,0-2.5-0.1-2.7-0.1c-2.5-0.1-15.1-3.2-25.1-7
			c-1,0.7-2,1.5-3,2.2c10.5,4.3,23.2,7.6,27.2,7.9c1.1,0.1,2.3,0.2,3.5,0.2c2.7,0,5.3-0.8,7.9-1.5c1.5-0.4,3.2-0.9,5-1.2
			c-0.5,0.5-0.9,0.9-1.4,1.4l-7.3,7.9c-0.6,0.6-1.8,2.1-1,4c0.3,0.8,1,1.5,1.9,2.1c1.7,1.2,4.8,2,7.7,2c1.1,0,2.1-0.1,3.1-0.3
			c3.1-0.7,6.2-3.2,9.6-5.9c2.7-2.1,6.5-4.9,9.5-5.7c0.8-0.2,1.8-0.4,2.6-0.4c0.2,0,0.5,0,0.7,0c1.9,0.2,3.8,0.9,7.2,3.4
			c6,4.5,32.4,27.6,32.6,27.8c0,0,1.7,1.5,1.6,3.9c-0.1,1.4-0.8,2.5-2.1,3.4c-1.1,0.7-2.3,1.1-3.5,1.1c-1.8,0-3-0.8-3.1-0.9
			c-0.1-0.1-9.2-8.4-12.5-11.2c-0.5-0.4-1.1-0.8-1.6-0.8c-0.3,0-0.5,0.1-0.7,0.3c-0.5,0.6,0.1,1.5,0.8,2.1l10.6,10.6
			c0,0,1.3,1.2,1.5,2.9c0.1,1.8-0.8,3.2-2.5,4.4c-1.2,0.8-2.5,1.2-3.8,1.2c-1.6,0-2.8-0.7-3-0.9l-1.5-1.5c-2.8-2.7-5.6-5.6-7.7-7.3
			c-0.5-0.4-1.1-0.8-1.6-0.8c-0.2,0-0.5,0.1-0.7,0.3c-0.2,0.3-0.4,0.7,0.2,1.5c0.2,0.3,0.5,0.6,0.5,0.6l7.7,8.7
			c0.1,0.1,1.6,1.9,0.2,3.7l-0.3,0.3c-0.2,0.3-0.5,0.5-0.7,0.7c-1.3,1.1-3.1,1.2-3.8,1.2c-0.4,0-0.7,0-1.1-0.1
			c-0.8-0.1-1.3-0.4-1.5-0.6l-0.1-0.1c-0.4-0.4-4.3-4.4-7.5-7.1c-0.4-0.4-0.9-0.8-1.5-0.8c-0.3,0-0.5,0.1-0.7,0.3
			c-0.6,0.7,0.3,1.7,0.7,2.1l6.6,7.3c0,0.1-0.1,0.2-0.2,0.4c-0.2,0.3-1,1.1-3.4,1.4c-0.3,0-0.6,0.1-0.9,0.1c-2.5,0-5.1-1.2-6.4-1.9
			c0.6-1.3,0.9-2.7,0.9-4.2c0-5.4-4.4-9.8-9.8-9.8c-0.1,0-0.2,0-0.4,0c0.2-2.5-0.2-7.1-5-9.2c-1.4-0.6-2.8-0.9-4.1-0.9
			c-1.1,0-2.1,0.2-3,0.5c-1-1.9-2.6-3.3-4.8-4.1c-1.2-0.4-2.4-0.6-3.5-0.6c-2,0-3.8,0.6-5.5,1.8c-1.6-2-3.9-3.1-6.5-3.1
			c-2.2,0-4.3,0.9-5.9,2.4c-2.1-1.6-10.2-6.7-31.9-11.7c-1.1-0.2-3.5-0.9-4.9-1.4c-0.2,1.2-0.4,2.4-0.6,3.6c0,0,4,1,4.8,1.1
			c22.2,4.9,29.6,10.1,30.8,11c-0.4,1-0.6,2.1-0.6,3.2c0,4.6,3.7,8.3,8.3,8.3c0.5,0,1,0,1.5-0.1c0.7,3.4,2.9,5.9,6.3,7.2
			c1,0.4,2,0.6,3,0.6c0.6,0,1.3-0.1,1.9-0.2c0.6,1.6,2,3.6,5.2,4.8c1.1,0.4,2.2,0.7,3.3,0.7c0.9,0,1.7-0.1,2.5-0.5
			c1.5,3.7,5.1,6.1,9.1,6.1c2.6,0,5.2-1.1,7-3c1.6,0.9,4.9,2.5,8.3,2.5c0.4,0,0.8,0,1.3-0.1c3.4-0.4,4.9-1.7,5.6-2.8
			c0.1-0.2,0.2-0.4,0.3-0.6c0.8,0.2,1.7,0.4,2.7,0.4c1.8,0,3.6-0.6,5.4-1.9c1.8-1.3,3-3.1,3.2-4.6c0,0,0,0,0-0.1
			c0.6,0.1,1.2,0.2,1.8,0.2c1.9,0,3.7-0.6,5.5-1.8c3.4-2.2,4-5.2,4-7.1c0.6,0.1,1.2,0.2,1.8,0.2c1.8,0,3.5-0.5,5.2-1.6
			c2.1-1.4,3.4-3.4,3.6-5.9c0.1-1.6-0.3-3.3-1.1-4.7c5.7-2.5,18.8-7.2,34.3-10.7c-0.1-1.2-0.3-2.4-0.5-3.6
			C-62.8-212-76.7-206-80.2-204.4"/>
	</g>
	<g id="g44" transform="translate(372.3848,355.1846)">
		<path id="path46" class="st3" d="M-162.4-323.2v25.2h-10.1v-23.2c0-11.3,5.7-16.9,16.9-16.9c5.1,0,9,1.1,11.8,3.4
			c2.8-2.2,6.7-3.2,11.8-3.2c11.3,0,16.9,5.6,16.8,16.9v23.2h-5.2c-3.3-0.2-4.9-1.8-4.9-4.9v-20.3c-0.2-4.1-2.5-6.1-6.9-6.1
			c-4.4,0-6.6,2-6.7,6.1v25.1h-10v-25.2c-0.2-4.1-2.5-6.1-6.9-6.1C-160.1-329.4-162.4-327.3-162.4-323.2"/>
	</g>
	<g id="g48" transform="translate(491.0654,348.9932)">
		<path id="path50" class="st3" d="M-185.2-312c0.3-12.8,6.6-19.9,19.8-19.9h3v10.3l-4.6,0.1c-5.5,0-8.1,3.6-8.1,9.3v20.5h-10.1
			L-185.2-312L-185.2-312z"/>
	</g>
	<g id="g52" transform="translate(604.4424,344.4316)">
		<path id="path54" class="st3" d="M-206.9-303.8v-3.2c-2.3,1-5,1.4-7.9,2c-4,0.8-6,2.6-6,5.5c0.2,3.1,1.9,4.6,5,4.6
			C-210.3-294.9-206.9-298.2-206.9-303.8 M-220.2-315l-9.2,0c0.4-7.6,4.2-12.7,15.5-12.7c10.9,0,16.4,3.6,16.6,10.9v13.4
			c0,10.9-6.6,15.8-17.2,16.5c-9.5,0.8-16.1-3.7-16.1-12.4c0.2-9.5,7.1-12,17.1-13c4.2-0.5,6.4-1.8,6.4-4c-0.2-2.2-2.3-3.3-6.4-3.4
			C-218.2-319.6-219.7-316.8-220.2-315"/>
	</g>
	<g id="g56" transform="translate(636.0684,348.5366)">
		<path id="path58" class="st3" d="M-213-311.2c-0.1,8,2.6,12,8.3,12c5.7,0,8.5-4,8.5-12c-0.2-7.6-3-11.4-8.4-11.4
			C-209.9-322.6-212.7-318.8-213-311.2 M-186.4-344v35.6c0,11.9-6.2,17.8-18.5,17.7c-12.2-0.2-18.4-6.9-18.4-20
			c0-13.4,5.2-20.3,15.8-20.7c4.9,0,8.7,2,11.3,6.1v-12.6l0-1.1C-192.9-343.9-186.4-344-186.4-344"/>
	</g>
	<g id="g60" transform="translate(450.3125,316.3428)">
		<path id="path62" class="st3" d="M-177.4-253h2.6v52.3h-9.9v-45.9C-184.7-248.1-181.6-253-177.4-253"/>
	</g>
	<g id="g68" transform="translate(467.5215,361.2886)">
		<path id="path70" class="st3" d="M-180.7-334.3c-1.3-1.4-3.2-2.1-5.8-2.1c-1.7,0-3.1,0.3-4.2,0.9c-1.1,0.6-2,1.3-2.7,2.1
			s-1.1,1.7-1.4,2.7s-0.4,1.8-0.5,2.5h17.2C-178.6-330.9-179.4-332.9-180.7-334.3 M-192.6-314c1.6,1.5,3.9,2.3,6.9,2.3
			c2.1,0,4-0.5,5.5-1.6s2.5-2.2,2.8-3.4h9.3c-1.5,4.6-3.8,7.9-6.9,9.9s-6.8,3-11.2,3c-3,0-5.8-0.5-8.2-1.5c-2.4-1-4.5-2.3-6.2-4.1
			c-1.7-1.8-3-3.9-3.9-6.4c-0.9-2.5-1.4-5.2-1.4-8.2c0-2.9,0.5-5.6,1.4-8s2.3-4.6,4-6.4c1.7-1.8,3.8-3.2,6.2-4.3
			c2.4-1,5.1-1.6,8-1.6c3.3,0,6.1,0.6,8.6,1.9c2.4,1.3,4.4,3,6,5.1c1.6,2.1,2.7,4.6,3.4,7.3c0.7,2.7,0.9,5.6,0.7,8.6h-27.8
			C-195.1-318-194.2-315.6-192.6-314"/>
	</g>
	<g id="g72" transform="translate(546.9404,364.02)">
		<path id="path74" class="st3" d="M-195.9-339.2c-1.7,0-3.1,0.4-4.3,1.2c-1.1,0.8-2.1,1.8-2.8,3c-0.7,1.2-1.2,2.6-1.5,4.1
			c-0.3,1.5-0.4,2.9-0.4,4.4c0,1.4,0.1,2.8,0.4,4.3s0.8,2.8,1.5,4c0.7,1.2,1.6,2.1,2.7,2.9c1.1,0.8,2.6,1.1,4.2,1.1
			c2.6,0,4.5-0.7,5.9-2.1c1.4-1.4,2.2-3.4,2.6-5.8h10.3c-0.7,5.2-2.7,9.1-6,11.8c-3.3,2.7-7.5,4.1-12.7,4.1c-2.9,0-5.6-0.5-8-1.5
			c-2.4-1-4.5-2.3-6.2-4.1c-1.7-1.8-3-3.9-4-6.3s-1.4-5.1-1.4-8c0-3,0.4-5.8,1.3-8.4c0.9-2.6,2.2-4.8,3.9-6.7s3.8-3.4,6.2-4.4
			c2.4-1,5.3-1.6,8.4-1.6c2.3,0,4.5,0.3,6.6,0.9c2.1,0.6,4,1.5,5.7,2.7c1.7,1.2,3,2.8,4.1,4.6c1.1,1.8,1.6,4,1.8,6.5H-188
			C-188.7-337-191.4-339.2-195.9-339.2"/>
	</g>
	<g id="g76" transform="translate(690.4863,342.9561)">
		<path id="path78" class="st3" d="M-223.4-301.1c0.3,1.5,0.8,2.8,1.5,4c0.7,1.2,1.7,2.1,2.9,2.8s2.7,1,4.5,1c1.8,0,3.3-0.4,4.6-1
			c1.2-0.7,2.2-1.6,2.9-2.8s1.2-2.5,1.5-4c0.3-1.5,0.4-3,0.4-4.5c0-1.5-0.1-3.1-0.4-4.6c-0.3-1.5-0.8-2.8-1.5-4
			c-0.7-1.1-1.7-2.1-2.9-2.8s-2.7-1.1-4.6-1.1c-1.8,0-3.3,0.4-4.5,1.1s-2.2,1.7-2.9,2.8c-0.7,1.1-1.2,2.5-1.5,4s-0.4,3-0.4,4.6
			C-223.9-304.1-223.7-302.6-223.4-301.1 M-233.1-314.1c0.9-2.5,2.3-4.7,4.1-6.5c1.8-1.8,3.9-3.2,6.3-4.1c2.4-1,5.2-1.5,8.3-1.5
			s5.8,0.5,8.3,1.5s4.6,2.4,6.4,4.1c1.8,1.8,3.1,3.9,4.1,6.5s1.4,5.4,1.4,8.5s-0.5,5.9-1.4,8.4s-2.3,4.6-4.1,6.4s-3.9,3.1-6.4,4.1
			c-2.5,1-5.2,1.4-8.3,1.4s-5.8-0.5-8.3-1.4c-2.5-1-4.6-2.3-6.3-4.1s-3.1-3.9-4.1-6.4c-0.9-2.5-1.4-5.3-1.4-8.4
			C-234.6-308.8-234.1-311.6-233.1-314.1"/>
	</g>
	<path id="path88" class="st3" d="M296.1,72.4h-9.9v-9h9.9V72.4z"/>
	<path id="path90" class="st3" d="M296.1,115.6h-9.9V76.9h9.9V115.6z"/>
	<g id="g84_1_" transform="translate(606.3789,289.2861)">
		<path id="path86_1_" class="st3" d="M-276.9-204.1c-1.3-1.4-3.2-2.1-5.8-2.1c-1.7,0-3.1,0.3-4.2,0.9c-1.1,0.6-2,1.3-2.7,2.1
			c-0.7,0.8-1.1,1.7-1.4,2.7c-0.3,0.9-0.4,1.8-0.5,2.5h17.2C-274.7-200.6-275.6-202.7-276.9-204.1 M-288.8-183.8
			c1.6,1.5,3.9,2.3,6.9,2.3c2.1,0,4-0.5,5.5-1.6s2.5-2.2,2.8-3.4h9.3c-1.5,4.6-3.8,7.9-6.9,9.9c-3.1,2-6.8,3-11.2,3
			c-3,0-5.8-0.5-8.2-1.4s-4.5-2.3-6.2-4.1c-1.7-1.8-3-3.9-3.9-6.4s-1.4-5.2-1.4-8.2c0-2.9,0.5-5.6,1.4-8s2.3-4.6,4-6.4
			s3.8-3.2,6.2-4.3c2.4-1,5.1-1.6,8-1.6c3.3,0,6.1,0.6,8.6,1.9c2.4,1.3,4.4,3,6,5.1c1.6,2.1,2.7,4.6,3.4,7.3
			c0.7,2.7,0.9,5.6,0.7,8.6h-27.8C-291.3-187.9-290.4-185.4-288.8-183.8"/>
	</g>
	<g id="g64_1_" transform="translate(513.6289,262.0811)">
		<path id="path66_1_" class="st3" d="M-147.2-154.9c-5.7,0-8.4-4-8.3-12c0.3-7.6,3.1-11.4,8.4-11.4c5.4,0,8.1,3.7,8.4,11.4
			C-138.7-158.9-141.5-154.9-147.2-154.9 M-144.3-187.1c-4.9,0-8.7,2-11.2,6.1v-17.7h-1.1c-4.9,0.1-7.6,2.7-8.8,4.9v-0.3v30.1
			c0,11.9,6.2,17.8,18.5,17.7c12.2-0.2,18.4-6.9,18.4-20C-128.5-179.9-133.8-186.8-144.3-187.1"/>
	</g>
	<g id="g80_1_" transform="translate(543.9404,276.9932)">
		<path id="path82_1_" class="st3" d="M-153-181.9c0.3-12.8,6.6-19.9,19.8-19.9h3v10.3l-4.6,0.1c-5.5,0-8.1,3.6-8.1,9.3v20.5H-153
			L-153-181.9L-153-181.9z"/>
	</g>
	<g id="g84_2_" transform="translate(606.3789,289.2861)">
		<path id="path86_2_" class="st3" d="M-165-204.1c-1.3-1.4-3.2-2.1-5.8-2.1c-1.7,0-3.1,0.3-4.2,0.9c-1.1,0.6-2,1.3-2.7,2.1
			s-1.1,1.7-1.4,2.7c-0.3,0.9-0.4,1.8-0.5,2.5h17.2C-162.8-200.6-163.7-202.7-165-204.1 M-176.9-183.8c1.6,1.5,3.9,2.3,6.9,2.3
			c2.1,0,4-0.5,5.5-1.6s2.5-2.2,2.8-3.4h9.3c-1.5,4.6-3.8,7.9-6.9,9.9c-3.1,2-6.8,3-11.2,3c-3,0-5.8-0.5-8.2-1.4
			c-2.4-1-4.5-2.3-6.2-4.1c-1.7-1.8-3-3.9-3.9-6.4s-1.4-5.2-1.4-8.2c0-2.9,0.5-5.6,1.4-8s2.3-4.6,4-6.4s3.8-3.2,6.2-4.3
			c2.4-1,5.1-1.6,8-1.6c3.3,0,6.1,0.6,8.6,1.9c2.4,1.3,4.4,3,6,5.1c1.6,2.1,2.7,4.6,3.4,7.3c0.7,2.7,0.9,5.6,0.7,8.6h-27.8
			C-179.4-187.9-178.5-185.4-176.9-183.8"/>
	</g>
</g>
</svg>
